<svg xmlns="http://www.w3.org/2000/svg" viewBox="0 0 180 180" fill="none" shape-rendering="auto"><metadata xmlns:rdf="http://www.w3.org/1999/02/22-rdf-syntax-ns#" xmlns:xsi="http://www.w3.org/2001/XMLSchema-instance" xmlns:dc="http://purl.org/dc/elements/1.1/" xmlns:dcterms="http://purl.org/dc/terms/"><rdf:RDF><rdf:Description><dc:title>Bottts</dc:title><dc:creator>Pablo Stanley</dc:creator><dc:source xsi:type="dcterms:URI">https://bottts.com/</dc:source><dcterms:license xsi:type="dcterms:URI">https://bottts.com/</dcterms:license><dc:rights>Remix of „Bottts” (https://bottts.com/) by „Pablo Stanley”, licensed under „Free for personal and commercial use” (https://bottts.com/)</dc:rights></rdf:Description></rdf:RDF></metadata><mask id="viewboxMask"><rect width="180" height="180" rx="0" ry="0" x="0" y="0" fill="#fff" /></mask><g mask="url(#viewboxMask)"><g transform="translate(0 66)"><mask id="sidesSquare-a" style="mask-type:luminance" maskUnits="userSpaceOnUse" x="14" y="16" width="152" height="44"><g fill="#fff"><rect x="14" y="16" width="36" height="44" rx="9"/><rect x="130" y="16" width="36" height="44" rx="9"/></g></mask><g mask="url(#sidesSquare-a)"><path d="M0 0h180v76H0V0Z" fill="#7cb342"/><path d="M0 0h180v76H0V0Z" fill="#fff" fill-opacity=".3"/><path fill="#000" fill-opacity=".1" d="M0 38h180v38H0z"/></g></g><g transform="translate(41)"><mask id="topBulb01-a" style="mask-type:luminance" maskUnits="userSpaceOnUse" x="22" y="0" width="56" height="52"><g fill="#fff"><path fill-rule="evenodd" clip-rule="evenodd" d="M32 16A16 16 0 0 1 48 0h4a16 16 0 0 1 16 16v16a8 8 0 0 1-8 8H40a8 8 0 0 1-8-8V16Z"/><rect x="22" y="40" width="56" height="12" rx="1"/></g></mask><g mask="url(#topBulb01-a)"><path d="M0 0h100v52H0V0Z" fill="#7cb342"/><path d="M0 0h100v52H0V0Z" fill="#fff" fill-opacity=".3"/><path fill="#fff" fill-opacity=".4" d="M20-3h60v43H20z"/><path d="M49 3.5c4.93 0 9.37 2.13 12.44 5.52" stroke="#fff" stroke-width="2" stroke-linecap="round"/><path d="m49.83 26-9-9L38 19.83l10 10V40h4V29.97l10.14-10.14L59.31 17l-9 9h-.48Z" fill="#fff" fill-opacity=".8"/></g></g><g transform="translate(25 44)"><mask id="faceSquare02-a" style="mask-type:luminance" maskUnits="userSpaceOnUse" x="0" y="0" width="130" height="120"><path d="M0 12A12 12 0 0 1 12 0h106a12 12 0 0 1 12 12v70a38 38 0 0 1-38 38H38A38 38 0 0 1 0 82V12Z" fill="#fff"/></mask><g mask="url(#faceSquare02-a)"><path d="M-2-2h134v124H-2V-2Z" fill="#7cb342"/><g transform="translate(-1 -1)"><g fill-rule="evenodd" clip-rule="evenodd" fill="#000"><path d="M100 124.65c-3.19-17.34-9.55-2.58-24.85-5.63-6.76-1.35-1.3-7.25-6.34-9.8-4.26-2.17-10.06-.43-14.94-1.82-7.04-2.02-6.95-6.12-13.5-6.73-6.2-.58-12.7 1.33-18.97.61C9.6 99.93 14.44 82.06 5.58 78.9c-8.85-3.15-23.43 2.3-25.34 11.23-1.86 8.71 10.57 41.12 10.57 41.12h109.2" fill-opacity=".2"/><path d="M136 116.77c-51.24 0-56.58-25.8-81.8-37.61C29 67.34 6.9 97.9-1.56 68.2c-8.48-29.7-8.43 62.86-8.43 62.86h146v-14.3Z" fill-opacity=".1"/><path d="M141.57 3.18c-11.93-.98-5.03 10.8-9.74 10.8-6.97 0-2.1-7.97-10.58-7.78-2.22.06-4.95 1.94-5.11 4.5-.37 5.52 3.71 15.03-1.84 15.3-5.18.25-1.1-9.64-1.65-16.24-.3-3.77-4.18-6.75-6.97-6.75-7.57 0-1.68 15.7-7.13 15.7s-1.2-9.05-5.08-13.84C88.97-.7 74.17-3.44 84.72-6h57.15" fill-opacity=".4"/></g></g></g></g><g transform="translate(52 124)"><rect x="4" y="5" width="68" height="22" rx="5" fill="#000" fill-opacity=".2"/><rect x="8" y="9" width="60" height="14" rx="2" fill="#000" fill-opacity=".6"/><path fill-rule="evenodd" clip-rule="evenodd" d="m20 17 6-8H14l6 8ZM32 17l6-8H26l6 8ZM44 17l6-8H38l6 8ZM56 17l6-8H50l6 8Z" fill="#E1E6E8"/></g><g transform="translate(38 76)"><path d="m25 27.2 5.5 5.5c.5.4 1.2.4 1.6 0l1.6-1.6c.4-.5.4-1.2 0-1.6L28.2 24l5.5-5.5c.4-.5.4-1.2 0-1.6l-1.6-1.6c-.5-.4-1.2-.4-1.6 0L25 20.8l-5.5-5.5c-.5-.4-1.2-.4-1.6 0l-1.6 1.6c-.4.4-.4 1.1 0 1.6l5.5 5.5-5.5 5.5c-.4.5-.4 1.2 0 1.6l1.6 1.6c.5.4 1.2.4 1.6 0l5.5-5.5ZM79 27.2l5.5 5.5c.5.4 1.2.4 1.6 0l1.6-1.6c.4-.5.4-1.2 0-1.6L82.2 24l5.5-5.5c.4-.5.4-1.2 0-1.6l-1.6-1.6c-.5-.4-1.2-.4-1.6 0L79 20.8l-5.5-5.5c-.5-.4-1.2-.4-1.6 0l-1.6 1.6c-.4.4-.4 1.1 0 1.6l5.5 5.5-5.5 5.5c-.4.5-.4 1.2 0 1.6l1.6 1.6c.5.4 1.2.4 1.6 0l5.5-5.5Z" fill="#000" fill-opacity=".8"/></g></g></svg>