<svg xmlns="http://www.w3.org/2000/svg" viewBox="0 0 180 180" fill="none" shape-rendering="auto"><metadata xmlns:rdf="http://www.w3.org/1999/02/22-rdf-syntax-ns#" xmlns:xsi="http://www.w3.org/2001/XMLSchema-instance" xmlns:dc="http://purl.org/dc/elements/1.1/" xmlns:dcterms="http://purl.org/dc/terms/"><rdf:RDF><rdf:Description><dc:title>Bottts</dc:title><dc:creator>Pablo Stanley</dc:creator><dc:source xsi:type="dcterms:URI">https://bottts.com/</dc:source><dcterms:license xsi:type="dcterms:URI">https://bottts.com/</dcterms:license><dc:rights>Remix of „Bottts” (https://bottts.com/) by „Pablo Stanley”, licensed under „Free for personal and commercial use” (https://bottts.com/)</dc:rights></rdf:Description></rdf:RDF></metadata><mask id="viewboxMask"><rect width="180" height="180" rx="0" ry="0" x="0" y="0" fill="#fff" /></mask><g mask="url(#viewboxMask)"><g transform="translate(0 66)"><g opacity=".9" stroke="#2A3544"><ellipse cx="32.5" cy="23" rx="16.5" ry="18" stroke-width="6"/><path d="M29.51 36.76c-7.4 4.29-17 1.55-21.42-6.1" stroke-width="4"/><ellipse cx="28.5" cy="52.5" rx="16.5" ry="14.5" stroke-width="4"/></g><g opacity=".9" stroke="#2A3544"><path d="M168.6 60.42c-4.27-7.41-13.95-9.84-21.6-5.42" stroke-width="4"/><ellipse cx="148.5" cy="22.5" rx="16.5" ry="15.5" stroke-width="6"/></g><mask id="sidesCables02-a" style="mask-type:luminance" maskUnits="userSpaceOnUse" x="21" y="0" width="138" height="72"><g fill="#fff"><rect x="21" y="27" width="16" height="22" rx="2"/><rect x="22" y="60" width="16" height="12" rx="2"/><rect x="143" y="42" width="16" height="22" rx="2"/><rect x="143" width="16" height="22" rx="2"/></g></mask><g mask="url(#sidesCables02-a)"><path d="M0 0h180v76H0V0Z" fill="#fdd835"/><path d="M0 0h180v76H0V0Z" fill="#fff" fill-opacity=".3"/></g></g><g transform="translate(41)"><mask id="topLights-a" style="mask-type:luminance" maskUnits="userSpaceOnUse" x="10" y="22" width="80" height="30"><g fill="#fff"><path d="M10 42c0-1.1.9-2 2-2h76a2 2 0 0 1 2 2v10H10V42Z"/><path d="M18 27a5 5 0 0 1 5-5h6a5 5 0 0 1 5 5v25H18V27ZM42 27a5 5 0 0 1 5-5h6a5 5 0 0 1 5 5v25H42V27ZM66 27a5 5 0 0 1 5-5h6a5 5 0 0 1 5 5v25H66V27Z"/></g></mask><g mask="url(#topLights-a)"><path d="M0 0h100v52H0V0Z" fill="#fdd835"/><path d="M0 0h100v52H0V0Z" fill="#fff" fill-opacity=".3"/><path fill="#fff" fill-opacity=".6" d="M0 0h100v40H0z"/><rect x="24" y="28" width="4" height="8" rx="2" fill="#fff" fill-opacity=".6"/><rect x="48" y="28" width="4" height="8" rx="2" fill="#fff" fill-opacity=".6"/><rect x="72" y="28" width="4" height="8" rx="2" fill="#fff" fill-opacity=".6"/></g></g><g transform="translate(25 44)"><mask id="faceRound02-a" style="mask-type:luminance" maskUnits="userSpaceOnUse" x="0" y="0" width="130" height="120"><path fill-rule="evenodd" clip-rule="evenodd" d="M0 31v-1c.18-.48.4-1.5 1-3 .83-3.06 2.78-6.56 6-10C16.7 6.6 35.17 0 65 0s48.3 6.6 58 17c3.22 3.44 5.17 6.94 6 10 .6 1.5.82 2.52 1 3v40c0-.1-.03.5 0 1a53.93 53.93 0 0 1-1 6c-1.19 6-3.4 11.91-7 17-9.72 16.34-27.74 26-57 26s-47.28-9.66-57-26C4.4 88.91 2.2 83 1 77a53.95 53.95 0 0 1-1-6c.03-.45 0-1.32 0-1V31Z" fill="#fff"/></mask><g mask="url(#faceRound02-a)"><path d="M-4-2h138v124H-4V-2Z" fill="#fdd835"/><g transform="translate(-1 -1)"><path d="M29.47 34.03c-.1 0-.19-.06-.26-.12-.08-.07-.14-.12-.13.14.01.5.67-.05.4-.02ZM9.33 48.92s.2-.56.03-.74c-.17.17-.18.42-.03.74ZM7.5 52c.06 0 .57-.28.48-.43-.12-.18-.49.34-.49.42ZM22.9 59.14c-.13-.11-.53-.45-.28-.5.14-.03.5.36.32.54v-.01h-.01l-.03-.03ZM26.33 108.46c.13-.02.66-.36.34-.45-.21-.04-.6.5-.34.46ZM52.63 96.34c-.05.05-.2.09-.34.12-.15.04-.26.07-.16.1.19.06.84.16.5-.22ZM4.76 43.63ZM5.1 71.63l.06-.1c1.02 0-.68.19-.07.1ZM80.53 109.92c.09-.02.1-.02.1-.11-.07.01-.08.02-.1.1ZM29.17 117.78c.08-.02.09-.03.1-.11-.08.01-.09.02-.1.1ZM9.01 49.75c.08-.02.09-.03.1-.12-.08.02-.09.03-.1.12ZM65.84 48.74c.02.09.03.1.1.1 0-.08-.01-.09-.1-.1ZM107.28 76.91c-.08.02-.09.03-.1.12.08-.02.09-.03.1-.12Z" fill="#000" fill-opacity=".2"/></g></g></g><g transform="translate(52 124)"><rect x="4" y="5" width="68" height="22" rx="5" fill="#000" fill-opacity=".2"/><rect x="8" y="9" width="60" height="14" rx="2" fill="#000" fill-opacity=".6"/><path fill-rule="evenodd" clip-rule="evenodd" d="m20 17 6-8H14l6 8ZM32 17l6-8H26l6 8ZM44 17l6-8H38l6 8ZM56 17l6-8H50l6 8Z" fill="#E1E6E8"/></g><g transform="translate(38 76)"><path d="m18 19 12-2M20 31c0-3.31 2.9-6 7-6 3.1 0 6 2.69 6 6M86 20l-12-3M84 31c0-3.31-2.9-6-6-6-4.1 0-7 2.69-7 6" stroke="#000" stroke-width="4" stroke-linecap="round" stroke-linejoin="round"/></g></g></svg>